<svg width="40" height="40" viewBox="0 0 40 40" fill="none" xmlns="http://www.w3.org/2000/svg">
  <path fill-rule="evenodd" clip-rule="evenodd" d="M22.1352 17.4005L33 17.5083L27.4874 25.9927L22.1352 17.4005ZM27.4838 5.2831L32.9964 13.7675L22.1316 13.8753L27.4838 5.2831ZM14.0481 16.8256L11.0386 14.4466L11.6519 36.8236C11.6519 36.8236 8.87423 37.7544 8.52835 35.3395C8.2217 33.2193 7.36592 24.1456 7.36592 24.1456L6.20706 24.1995C6.20706 24.1995 5.35128 32.4647 4.97331 35.1347C4.58821 37.8442 1.67144 36.723 1.67144 36.723L2.55931 20.2826C2.55931 20.2826 -0.471568 17.5586 0.0632925 15.1797C0.530404 13.0919 1.16511 9.7894 1.16511 9.7894C3.61477 7.32783 9.2201 7.18768 11.9871 9.72113V9.74628L15.3888 13.4979C15.3888 13.4979 16.9435 13.7495 18.3163 13.9112C20.4165 14.1627 19.7676 16.4267 19.7676 16.4267L14.0481 16.8256ZM3.81445 3.37852C3.30455 -0.660625 9.80488 -1.4548 9.80488 3.07307C9.80488 7.66921 4.29582 7.26674 3.81445 3.37852Z" fill="#773844" />
</svg>