<svg width="72" height="56" viewBox="0 0 72 56" fill="none" xmlns="http://www.w3.org/2000/svg">
  <path fill-rule="evenodd" clip-rule="evenodd" d="M52.8392 17.279C49.8124 21.1251 38.9546 21.3029 35.2836 17.5806C31.8457 21.4106 19.9605 21.8469 16.0839 14.521L18.3943 12.0485C21.8433 17.2143 30.9071 17.7692 34.9559 12.0485C35.2122 12.0192 35.4698 12.003 35.7279 12C38.938 17.2305 49.2959 17.3867 52.2283 12C52.4005 12 53.1891 12 53.1891 12C57.0768 17.0097 65.6964 16.9773 69.7785 12.2209L72 14.1655C68.3234 21.653 57.2323 21.4268 52.8392 17.279ZM19.6217 24.9443C22.8318 30.1748 33.1898 30.331 36.1222 24.912H37.083C40.9707 29.9216 49.5903 29.8893 53.6723 25.1328L55.8939 27.0774C52.2394 34.6189 41.1484 34.3711 36.7553 30.2233C33.7285 34.0694 22.8707 34.2472 19.1996 30.5249C15.7674 34.3549 3.87658 34.7858 0 27.4653L2.28818 24.9766C5.73712 30.1425 14.801 30.6973 18.8497 24.9766C19.1063 24.9527 19.364 24.9419 19.6217 24.9443ZM29.402 35.7501C29.6583 35.7207 29.916 35.7046 30.174 35.7016C33.3841 40.9321 43.7421 41.0883 46.6745 35.6746C46.8467 35.6746 47.6353 35.6746 47.6353 35.6746C51.523 40.6843 60.1426 40.652 64.2246 35.8955L66.4462 37.8401C62.7917 45.3815 51.7007 45.1337 47.3076 40.986C44.2808 44.8321 33.423 45.0098 29.7519 41.2876C26.3197 45.1176 14.4289 45.5539 10.5523 38.228L12.8405 35.7501C16.2894 40.9321 25.3533 41.4869 29.402 35.7501Z" fill="white" />
</svg>